<svg xmlns="http://www.w3.org/2000/svg" width="869" height="281" viewBox="0 0 869 281" fill="none"><path d="M419 130.009C419 135.644 417.475 140.356 414.427 144.144C411.47 147.839 407.451 150.611 402.37 152.458C397.289 154.306 391.699 155.23 385.602 155.23H337.653V56.8384H392.392C397.012 56.8384 400.984 58.0864 404.31 60.5804C407.729 62.9824 410.315 66.1234 412.071 70.0044C413.918 73.8844 414.842 77.9034 414.842 82.0604C414.842 86.6794 413.641 91.1144 411.239 95.3644C408.837 99.5214 405.326 102.662 400.707 104.787C406.343 106.45 410.777 109.406 414.011 113.656C417.337 117.906 419 123.357 419 130.009ZM395.857 125.435C395.857 123.31 395.441 121.463 394.61 119.892C393.778 118.229 392.67 116.936 391.284 116.012C389.99 114.996 388.42 114.488 386.572 114.488H360.38V135.967H385.602C387.542 135.967 389.251 135.506 390.729 134.582C392.3 133.658 393.547 132.411 394.471 130.84C395.395 129.269 395.857 127.468 395.857 125.435ZM360.38 76.2404V96.6115H382.692C384.355 96.6115 385.879 96.2414 387.265 95.5024C388.743 94.7634 389.944 93.6545 390.868 92.1765C391.792 90.6065 392.254 88.6664 392.254 86.3564C392.254 84.1394 391.838 82.2914 391.007 80.8134C390.267 79.3354 389.251 78.2264 387.958 77.4874C386.664 76.6554 385.186 76.2404 383.523 76.2404H360.38ZM501.537 135.275V155.23H432.386V56.8384H500.29V76.7944H455.113V95.9184H493.915V114.349H455.113V135.275H501.537ZM508.038 105.203C508.038 99.1984 509.147 93.3314 511.364 87.6034C513.581 81.7834 516.815 76.5175 521.065 71.8055C525.314 67.0935 530.488 63.3524 536.586 60.5804C542.683 57.7164 549.612 56.2844 557.372 56.2844C566.611 56.2844 574.603 58.2704 581.347 62.2434C588.183 66.2164 593.265 71.3894 596.59 77.7644L579.129 89.9594C577.651 86.4484 575.665 83.7234 573.171 81.7834C570.768 79.8434 568.089 78.5034 565.133 77.7644C562.269 76.9334 559.497 76.5174 556.818 76.5174C552.476 76.5174 548.688 77.3945 545.455 79.1505C542.221 80.8135 539.542 83.0764 537.417 85.9404C535.292 88.8044 533.722 91.9924 532.705 95.5024C531.689 99.0134 531.181 102.524 531.181 106.034C531.181 109.914 531.781 113.656 532.982 117.259C534.183 120.862 535.893 124.05 538.11 126.821C540.42 129.593 543.191 131.81 546.425 133.473C549.658 135.044 553.215 135.829 557.095 135.829C559.867 135.829 562.685 135.367 565.549 134.443C568.413 133.519 571.046 132.087 573.448 130.147C575.942 128.115 577.836 125.482 579.129 122.248L597.699 133.196C595.759 138 592.572 142.111 588.137 145.529C583.703 148.948 578.668 151.581 573.032 153.428C567.489 155.184 561.992 156.061 556.541 156.061C549.427 156.061 542.868 154.629 536.863 151.766C530.95 148.809 525.822 144.929 521.48 140.125C517.231 135.228 513.905 129.778 511.503 123.772C509.193 117.675 508.038 111.485 508.038 105.203ZM609.129 155.23V56.8384H631.856V99.2444L667.886 56.8384H693.385L656.523 100.768L695.88 155.23H669.827L642.111 115.735L631.856 126.267V155.23H609.129ZM772.335 135.275V155.23H703.184V56.8384H771.088V76.7944H725.911V95.9184H764.714V114.349H725.911V135.275H772.335ZM786.142 155.23V56.8384H830.488C835.107 56.8384 839.357 57.8095 843.237 59.7495C847.21 61.5965 850.628 64.1374 853.492 67.3714C856.356 70.5124 858.573 74.0694 860.144 78.0414C861.807 82.0144 862.638 86.0334 862.638 90.0984C862.638 94.1634 861.992 98.0434 860.698 101.738C859.405 105.341 857.557 108.621 855.155 111.577C852.753 114.441 849.889 116.797 846.563 118.645L868.182 155.23H843.099L824.252 123.495H808.87V155.23H786.142ZM808.87 103.678H829.656C831.504 103.678 833.121 103.124 834.507 102.015C835.985 100.814 837.186 99.1984 838.11 97.1654C839.034 95.1334 839.496 92.7774 839.496 90.0984C839.496 87.4184 838.941 85.1094 837.833 83.1694C836.816 81.1364 835.523 79.5664 833.952 78.4574C832.382 77.3484 830.719 76.7944 828.964 76.7944H808.87V103.678Z" fill="#C8982E"></path><path d="M334.204 238.797V188.905H340.528V238.797H334.204ZM371.431 200.57V238.797H365.106V188.905H370.447L400.944 227.905V188.976H407.269V238.797H401.506L371.431 200.57ZM438.155 200.57V238.797H431.83V188.905H437.171L467.668 227.905V188.976H473.992V238.797H468.23L438.155 200.57ZM518.792 239.149C515.278 239.149 512.093 238.446 509.235 237.041C506.377 235.635 503.895 233.738 501.786 231.349C499.725 228.913 498.132 226.196 497.008 223.197C495.884 220.152 495.322 217.037 495.322 213.851C495.322 210.525 495.907 207.363 497.078 204.365C498.296 201.32 499.959 198.626 502.068 196.284C504.223 193.895 506.729 192.021 509.586 190.662C512.444 189.257 515.559 188.554 518.932 188.554C522.446 188.554 525.632 189.28 528.489 190.733C531.347 192.185 533.806 194.129 535.868 196.565C537.929 199.001 539.522 201.718 540.646 204.716C541.77 207.714 542.332 210.783 542.332 213.922C542.332 217.248 541.747 220.433 540.576 223.478C539.405 226.477 537.741 229.17 535.586 231.56C533.478 233.902 530.995 235.752 528.138 237.111C525.28 238.469 522.165 239.149 518.792 239.149ZM501.716 213.851C501.716 216.381 502.114 218.841 502.911 221.23C503.754 223.572 504.925 225.657 506.424 227.484C507.923 229.311 509.727 230.763 511.835 231.841C513.943 232.918 516.286 233.457 518.862 233.457C521.532 233.457 523.922 232.895 526.03 231.77C528.138 230.646 529.918 229.147 531.37 227.273C532.869 225.399 533.994 223.291 534.743 220.949C535.54 218.606 535.938 216.241 535.938 213.851C535.938 211.322 535.516 208.886 534.673 206.543C533.877 204.201 532.705 202.116 531.159 200.289C529.66 198.415 527.857 196.963 525.749 195.933C523.687 194.855 521.392 194.316 518.862 194.316C516.192 194.316 513.803 194.878 511.695 196.003C509.586 197.08 507.783 198.556 506.284 200.43C504.832 202.304 503.707 204.412 502.911 206.754C502.114 209.05 501.716 211.415 501.716 213.851ZM563.252 188.905L579.766 230.857L596.209 188.905H602.885L582.647 238.797H576.885L556.576 188.905H563.252ZM633.387 188.905H638.727L659.106 238.797H652.36L646.457 224.181H625.517L619.684 238.797H612.938L633.387 188.905ZM645.052 219.262L636.057 196.214L626.781 219.262H645.052ZM709.656 194.527H692.44V238.797H686.116V194.527H668.9V188.905H709.656V194.527ZM729.491 238.797V188.905H735.815V238.797H729.491ZM780.631 239.149C777.118 239.149 773.932 238.446 771.074 237.041C768.217 235.635 765.734 233.738 763.626 231.349C761.564 228.913 759.972 226.196 758.847 223.197C757.723 220.152 757.161 217.037 757.161 213.851C757.161 210.525 757.746 207.363 758.918 204.365C760.136 201.32 761.799 198.626 763.907 196.284C766.062 193.895 768.568 192.021 771.426 190.662C774.283 189.257 777.399 188.554 780.772 188.554C784.285 188.554 787.471 189.28 790.328 190.733C793.186 192.185 795.645 194.129 797.707 196.565C799.768 199.001 801.361 201.718 802.485 204.716C803.609 207.714 804.172 210.783 804.172 213.922C804.172 217.248 803.586 220.433 802.415 223.478C801.244 226.477 799.581 229.17 797.426 231.56C795.318 233.902 792.835 235.752 789.977 237.111C787.119 238.469 784.004 239.149 780.631 239.149ZM763.555 213.851C763.555 216.381 763.954 218.841 764.75 221.23C765.593 223.572 766.764 225.657 768.263 227.484C769.763 229.311 771.566 230.763 773.674 231.841C775.782 232.918 778.125 233.457 780.701 233.457C783.372 233.457 785.761 232.895 787.869 231.77C789.977 230.646 791.757 229.147 793.209 227.273C794.709 225.399 795.833 223.291 796.582 220.949C797.379 218.606 797.777 216.241 797.777 213.851C797.777 211.322 797.355 208.886 796.512 206.543C795.716 204.201 794.545 202.116 792.999 200.289C791.499 198.415 789.696 196.963 787.588 195.933C785.527 194.855 783.231 194.316 780.701 194.316C778.031 194.316 775.642 194.878 773.534 196.003C771.426 197.08 769.622 198.556 768.123 200.43C766.671 202.304 765.546 204.412 764.75 206.754C763.954 209.05 763.555 211.415 763.555 213.851ZM831.932 200.57V238.797H825.607V188.905H830.948L861.445 227.905V188.976H867.769V238.797H862.007L831.932 200.57Z" fill="#C8982E"></path><path d="M121.846 7.6155C132 -2.5385 148.462 -2.5385 158.616 7.6155L272.845 121.845C282.999 131.999 282.999 148.461 272.845 158.615L158.616 272.845C148.462 282.999 132 282.999 121.846 272.845L7.6155 158.615C-2.5385 148.461 -2.5385 131.999 7.6155 121.845L121.846 7.6155Z" fill="#C8982E"></path><path d="M140.23 0.230469L144.516 129.883L239.225 41.2355L150.577 135.944L280.23 140.23L150.577 144.516L239.225 239.225L144.516 150.577L140.23 280.23L135.944 150.577L41.2355 239.225L129.883 144.516L0.230469 140.23L129.883 135.944L41.2355 41.2355L135.944 129.883L140.23 0.230469Z" fill="#F0F8FF"></path></svg>